<?xml version="1.0" standalone="no"?><!DOCTYPE svg PUBLIC "-//W3C//DTD SVG 1.1//EN" "http://www.w3.org/Graphics/SVG/1.1/DTD/svg11.dtd"><svg t="1570244172123" class="icon" viewBox="0 0 2493 1024" version="1.1" xmlns="http://www.w3.org/2000/svg" p-id="3184" xmlns:xlink="http://www.w3.org/1999/xlink" width="486.9140625" height="200"><defs><style type="text/css"></style></defs><path d="M218.593607 928.146119V0c27.665145 74.033486 218.593607 259.896499 218.593608 489.400304 0 325.747336-218.593607 438.745814-218.593608 438.745815z" fill="#008A2B" p-id="3185"></path><path d="M0 489.400304C0 259.896499 190.538813 74.033486 218.593607 0v928.146119S0 815.147641 0 489.400304z" fill="#00A625" p-id="3186"></path><path d="M218.593607 1024c19.092846 0 29.223744-14.806697 27.275495-33.899543v-74.033486a53.38204 53.38204 0 0 0-8.572298-28.834094l-17.144597-26.496195-17.144597 26.496195a50.26484 50.26484 0 0 0-8.572298 28.834094v74.033486a29.613394 29.613394 0 0 0 27.665145 33.899543z" fill="#ABA881" p-id="3187"></path><path d="M603.178082 445.369863l27.275495-26.885845a77.929985 77.929985 0 0 1 22.599695-13.637747 59.616438 59.616438 0 0 1 24.158296-5.065449 52.99239 52.99239 0 0 1 34.289193 11.689498 58.837139 58.837139 0 0 1 19.482496 33.899543 155.85997 155.85997 0 0 1 38.964993-37.016743 70.526636 70.526636 0 0 1 33.899543-8.572298 52.21309 52.21309 0 0 1 30.003044 8.572298 57.278539 57.278539 0 0 1 20.651446 28.834095 125.467275 125.467275 0 0 1 5.455099 42.471841v92.347032a90.009132 90.009132 0 0 0 2.72755 27.665145 21.041096 21.041096 0 0 0 8.961948 8.572298 42.861492 42.861492 0 0 0 20.261796 3.50685v8.572298h-105.20548v-8.572298h4.28615a38.964992 38.964992 0 0 0 21.430745-5.065449 20.651446 20.651446 0 0 0 7.792999-12.079148 137.156773 137.156773 0 0 0 0-22.599696v-92.347032a77.929985 77.929985 0 0 0-6.234399-38.964992 31.171994 31.171994 0 0 0-28.834094-14.806697 53.771689 53.771689 0 0 0-24.937595 6.234399 125.467275 125.467275 0 0 0-30.003045 22.989345v114.946728a92.347032 92.347032 0 0 0 2.3379 27.275494 19.092846 19.092846 0 0 0 9.351598 8.961949 52.99239 52.99239 0 0 0 22.989346 3.506849v8.572298h-105.59513v-6.624048a51.82344 51.82344 0 0 0 24.547945-3.8965 21.820396 21.820396 0 0 0 8.961949-12.858447 122.350076 122.350076 0 0 0 0-22.989346v-92.347032a68.968037 68.968037 0 0 0-7.403349-38.964992 33.120244 33.120244 0 0 0-28.834094-15.196347 50.65449 50.65449 0 0 0-24.937595 7.013699 91.957382 91.957382 0 0 0-29.613395 22.989345v114.946728a81.047184 81.047184 0 0 0 2.72755 27.275494 22.210046 22.210046 0 0 0 8.572298 9.351598 52.99239 52.99239 0 0 0 23.378996 3.1172v8.572298h-104.42618v-7.013698a44.420091 44.420091 0 0 0 20.651446-3.1172 19.872146 19.872146 0 0 0 8.961948-9.741248 82.605784 82.605784 0 0 0 2.72755-26.885845v-81.826484a279.768645 279.768645 0 0 0-1.94825-45.589041 19.092846 19.092846 0 0 0-5.065449-10.910198 14.417047 14.417047 0 0 0-9.741248-2.727549 38.964992 38.964992 0 0 0-15.585997 3.506849l-3.506849-8.572298 64.292237-26.106545h10.130898v45.589041zM1091.019787 436.797565a95.464231 95.464231 0 0 0-77.929985-37.016743 97.412481 97.412481 0 0 0-88.450533 56.888889 129.363775 129.363775 0 0 0-14.417047 58.447488A120.401826 120.401826 0 0 0 935.159817 588.371385a90.398782 90.398782 0 0 0 77.929985 38.964992 99.750381 99.750381 0 0 0 53.38204-15.196347 97.412481 97.412481 0 0 0 38.964992-44.420091 133.260274 133.260274 0 0 0 13.637747-58.057839 116.894977 116.894977 0 0 0-28.054794-72.864535z m-33.120244 155.859969a45.589041 45.589041 0 0 1-38.964992 18.703197 54.940639 54.940639 0 0 1-44.809741-35.068494 164.432268 164.432268 0 0 1-18.313547-80.657534 126.636225 126.636225 0 0 1 7.403349-47.537291 51.82344 51.82344 0 0 1 20.261796-25.716894 47.147641 47.147641 0 0 1 24.937595-7.403349 50.65449 50.65449 0 0 1 42.082192 22.599696 145.729072 145.729072 0 0 1 24.158295 89.619482 107.153729 107.153729 0 0 1-15.196347 64.292237zM1210.642314 444.980213a102.08828 102.08828 0 0 1 71.695586-45.199391 51.43379 51.43379 0 0 1 30.003044 8.572298 60.395738 60.395738 0 0 1 19.872146 29.223745 130.143075 130.143075 0 0 1 5.065449 42.861491v91.567732a73.254186 73.254186 0 0 0 3.506849 27.665145 16.754947 16.754947 0 0 0 8.182649 8.961948 45.589041 45.589041 0 0 0 21.041095 3.1172v8.572298h-105.595129v-8.572298h4.675799a34.678843 34.678843 0 0 0 20.651446-4.28615 23.768645 23.768645 0 0 0 8.182648-13.637747 109.101979 109.101979 0 0 0 0-21.820396v-87.671233a88.060883 88.060883 0 0 0-7.792998-42.471841 26.496195 26.496195 0 0 0-25.327245-13.248098 77.929985 77.929985 0 0 0-55.330289 30.392694v112.998478a84.164384 84.164384 0 0 0 2.727549 26.885845 19.872146 19.872146 0 0 0 8.961948 9.741248 52.21309 52.21309 0 0 0 22.989346 3.1172v8.572298h-105.205479v-8.572298h4.675799a24.547945 24.547945 0 0 0 21.820395-8.182649 58.837139 58.837139 0 0 0 5.844749-31.561644v-77.929984a332.761035 332.761035 0 0 0-2.337899-48.706241 20.261796 20.261796 0 0 0-5.065449-11.299848 12.858447 12.858447 0 0 0-9.741248-3.117199 36.237443 36.237443 0 0 0-15.585997 3.506849l-3.50685-8.572298 64.292238-26.106545h10.130898v45.199391zM1600.292237 417.315068a3.896499 3.896499 0 0 0-2.337899-1.948249 53.771689 53.771689 0 0 0-11.689498 0h-45.199391a93.515982 93.515982 0 0 0-52.60274-14.806697 84.943683 84.943683 0 0 0-61.175038 22.989345 74.423135 74.423135 0 0 0-13.248097 92.736682 69.357686 69.357686 0 0 0 30.003044 26.885845 169.108067 169.108067 0 0 0-30.782344 30.782344 41.302892 41.302892 0 0 0-6.624049 19.482496 19.872146 19.872146 0 0 0 5.065449 12.858448 68.968037 68.968037 0 0 0 17.144597 12.858447l-23.768645 25.327245a145.339422 145.339422 0 0 0-16.365297 24.158295 29.223744 29.223744 0 0 0-2.3379 11.299848c0 8.182648 5.844749 16.365297 17.534247 24.158295a150.015221 150.015221 0 0 0 170.277017-13.637747 68.188737 68.188737 0 0 0 23.378995-50.26484 44.030441 44.030441 0 0 0-12.858448-32.340944 56.109589 56.109589 0 0 0-34.289193-16.365297c-9.741248 0-30.392694-2.3379-62.343988-3.117199h-32.340943a31.951294 31.951294 0 0 1-15.196347-5.455099 12.468798 12.468798 0 0 1-3.8965-7.792998 21.820396 21.820396 0 0 1 3.8965-11.299848 57.668189 57.668189 0 0 1 13.637747-15.585997 116.894977 116.894977 0 0 0 32.340944 4.675799 84.943683 84.943683 0 0 0 61.175038-21.430746 67.409437 67.409437 0 0 0 22.989345-51.04414 69.747336 69.747336 0 0 0-12.079147-44.809741h38.964992a7.013699 7.013699 0 0 0 2.727549-1.94825 21.041096 21.041096 0 0 0 0-8.572298 14.806697 14.806697 0 0 0 0-7.792999zM1441.704718 620.322679a800.340944 800.340944 0 0 0 80.267885 5.455099 141.832572 141.832572 0 0 1 47.92694 6.234399 17.144597 17.144597 0 0 1 12.079148 17.144596 38.964992 38.964992 0 0 1-19.872146 31.561644 102.08828 102.08828 0 0 1-61.954338 14.806697 127.025875 127.025875 0 0 1-67.019787-14.417047 23.768645 23.768645 0 0 1-13.637747-19.482496 43.251142 43.251142 0 0 1 5.455099-19.092846 122.739726 122.739726 0 0 1 16.754946-22.210046z m77.929985-93.905632a36.627093 36.627093 0 0 1-29.223744 13.637748 38.964992 38.964992 0 0 1-30.782344-15.585997 91.957382 91.957382 0 0 1-15.585997-57.278539 65.071537 65.071537 0 0 1 11.689498-42.471842 38.964992 38.964992 0 0 1 59.226788 0 95.464231 95.464231 0 0 1 15.975647 58.447489 64.292237 64.292237 0 0 1-11.299848 43.251141zM1807.196347 436.797565a94.684932 94.684932 0 0 0-77.929985-37.016743 97.412481 97.412481 0 0 0-88.450532 56.888889 129.363775 129.363775 0 0 0-14.417048 58.447488 120.401826 120.401826 0 0 0 23.768646 73.254186 90.398782 90.398782 0 0 0 77.929984 38.964992 101.30898 101.30898 0 0 0 53.77169-15.196347 99.750381 99.750381 0 0 0 38.964992-44.420091 138.715373 138.715373 0 0 0 10.520548-58.447488 112.998478 112.998478 0 0 0-24.158295-72.474886z m-33.120243 155.859969a45.199391 45.199391 0 0 1-38.964993 18.703197 55.719939 55.719939 0 0 1-49.09589-33.899544 168.718417 168.718417 0 0 1-18.313547-80.657534 126.246575 126.246575 0 0 1 7.792999-47.537291 51.43379 51.43379 0 0 1 19.872146-25.716895 48.316591 48.316591 0 0 1 24.937595-7.403348 49.48554 49.48554 0 0 1 42.082192 22.599695 145.729072 145.729072 0 0 1 24.547945 89.619483 106.764079 106.764079 0 0 1-12.858447 63.123287z" fill="#47261B" p-id="3188"></path><path d="M2150.86758 376.012177a132.870624 132.870624 0 0 0-63.902588-57.278539 219.762557 219.762557 0 0 0-90.788432-15.585997H1854.733638V311.719939h10.520548a38.964992 38.964992 0 0 1 21.041096 4.675799 24.547945 24.547945 0 0 1 10.520548 10.520548 116.894977 116.894977 0 0 1 2.337899 30.392694v208.852359a104.81583 104.81583 0 0 1-1.94825 29.223745 27.275495 27.275495 0 0 1-10.910197 12.079147 42.471842 42.471842 0 0 1-21.041096 4.28615h-10.520548v8.572298h141.442922a244.700152 244.700152 0 0 0 44.420091-2.72755 219.762557 219.762557 0 0 0 54.55099-17.144596 137.546423 137.546423 0 0 0 38.964992-29.613394 144.949772 144.949772 0 0 0 27.665145-46.368341 176.901065 176.901065 0 0 0 10.520548-61.954338 173.004566 173.004566 0 0 0-21.430746-86.502283z m-90.009133 200.28006a70.136986 70.136986 0 0 1-59.616438 26.885845 38.964992 38.964992 0 0 1-17.923896-3.506849 12.079148 12.079148 0 0 1-6.234399-7.013699 87.671233 87.671233 0 0 1-1.94825-24.158295V321.071537a155.85997 155.85997 0 0 1 55.719939 7.013699 81.436834 81.436834 0 0 1 38.964993 38.964992 209.242009 209.242009 0 0 1 19.092846 97.412481 180.797565 180.797565 0 0 1-28.054795 111.829528zM2467.652968 477.710807a155.85997 155.85997 0 0 0-63.123288-25.716895 116.894977 116.894977 0 0 0 58.447489-28.444445 57.668189 57.668189 0 0 0 16.365297-38.964992 72.864536 72.864536 0 0 0-12.858448-41.302892 77.929985 77.929985 0 0 0-35.847793-28.834094 208.852359 208.852359 0 0 0-77.929985-9.741249h-150.01522V311.719939a82.216134 82.216134 0 0 1 29.613394 3.896499 24.547945 24.547945 0 0 1 10.910198 10.910198 91.178082 91.178082 0 0 1 3.117199 32.340944v205.73516a91.178082 91.178082 0 0 1-3.117199 32.340943 22.210046 22.210046 0 0 1-10.910198 10.520548 70.916286 70.916286 0 0 1-29.613394 4.28615v8.572298h160.146119a159.756469 159.756469 0 0 0 102.477929-28.444445 72.474886 72.474886 0 0 0 28.444445-58.837138 67.019787 67.019787 0 0 0-26.106545-55.330289z m-147.677321-155.85997a123.129376 123.129376 0 0 1 49.48554 6.624049 50.26484 50.26484 0 0 1 23.378996 20.651446 64.681887 64.681887 0 0 1 8.182648 34.289193 66.240487 66.240487 0 0 1-8.182648 34.678843 55.719939 55.719939 0 0 1-24.158296 21.041096 116.894977 116.894977 0 0 1-48.70624 7.403349z m83.385084 249.375951a54.940639 54.940639 0 0 1-23.768646 24.158296 70.526636 70.526636 0 0 1-34.678843 8.572298 25.327245 25.327245 0 0 1-18.703196-6.624049 25.716895 25.716895 0 0 1-6.624049-19.092846v-114.167428a155.85997 155.85997 0 0 1 53.38204 6.624049 55.719939 55.719939 0 0 1 28.444444 24.937595 77.929985 77.929985 0 0 1 10.130898 38.964993 70.916286 70.916286 0 0 1-8.182648 35.847793z" fill="#966E49" p-id="3189"></path></svg>